<svg xmlns="http://www.w3.org/2000/svg" xmlns:xlink="http://www.w3.org/1999/xlink" width="55" height="100" viewBox="0 0 55 100">
    <defs>
        <path id="6at86bn51a" d="M0 0.109L31.591 0.109 31.591 96.999 0 96.999z"/>
    </defs>
    <g fill="none" fill-rule="evenodd">
        <g>
            <g>
                <g>
                    <path fill="#5CFFE4" d="M19.18 74.94c-.105.04-.192.124-.27.26-.096.143-.095.292-.32.605.117.032.243.046.341.061.075.025.145.04.211.045.133.01.25-.018.357-.075.214-.11.392-.332.587-.578-.418-.284-.697-.396-.906-.318M25.812 86.634c-.445-.409-.78-.557-1.083-.397-.3.152-.58.65-.855 1.378 1.007.304 1.644-.095 1.938-.98M21.693 89.38c.073-.019.149-.053.226-.102.355-.227.358-.588.019-1.112-.343.038-.624.135-.838.317-.132.13-.236.294-.308.5.296.357.596.504.9.397M24.106 95.67c.096-.063.1-.4.021-.577-.074-.168-.32-.382-.473-.417-.869-.201-1.529.36-1.77 1.548 1.028.3 1.624-.145 2.222-.553M17.995 91.12c.717.228.72.226.934-.578-.966-.244-.963-.246-.934.577M21.08 52.126c-.072.193-.012.54.107.76.07.126.418.23.57.178.22-.075.455-.18.588-.346.126-.166.201-.405.19-.762-.4-.186-.698-.274-.93-.248-.258.03-.428.166-.525.418M23.881 49.872c-.416.167-.472.567-.222 1.257.655.152.862.162.998-.128.082-.17.102-.477.02-.7-.129-.352-.537-.534-.796-.429M25.373 48.935c-.251.167-.3.554-.116.874.175.305.55.427.802.252.243-.17.185-.46.042-.711-.255-.42-.482-.578-.728-.415" transform="translate(-207 -2661) translate(207 2356) translate(0 305)"/>
                    <g transform="translate(-207 -2661) translate(207 2356) translate(0 305) translate(0 1.89)">
                        <mask id="7chwh39kcb" fill="#fff">
                            <use xlink:href="#6at86bn51a"/>
                        </mask>
                        <path fill="#5CFFE4" d="M27.297 4.121v3.123c-.301.102-.6.225-.882.41-.578.381-1.236.663-1.837.99-.594.331-1.17.693-1.652 1.21-.562.6-1.222 1.073-1.86 1.571-.727.567-1.746.651-2.325 1.47-.05.071-.208.018-.311.034-1.001.133-1.774.691-2.536 1.251-.312.227-.605.482-.9.734-.51.174-.943.405-1.164.684l-1.733 1.274-.473.348c-.477.405-.97.787-1.503 1.106l-2.09 1.536-2.067 1.52-.28.206-1.121.824-.25.184v-6.385c.277.008.497-.099.692-.288.269-.263.512-.573.828-.755l2.16-1.233 1.094-.597 1.145-.508c1.228-.522 2.417-1.087 3.44-1.943.283-.235.678-.312 1.012-.476.602-.307 1.275-.522 1.783-.955.488-.418.984-.783 1.578-1.026.678-.28 1.306-.666 1.93-1.047.543-.33 1.019-.772 1.578-1.07 1.517-.838 3.273-1.6 4.936-2.369.297-.135.56-.316.808-.517v.694zm0 6.904v3.326c-.025.018-.052.031-.077.048-1.816 1.235-3.58 2.554-5.377 3.824-.921.626-1.917 1.134-2.852 1.74-.365.23-.752.457-1.052.773V16.08c0-.06.003-.125.006-.188.63-.372 1.232-.786 1.76-1.3.164-.174.378-.287.589-.388 1.033-.497 1.874-1.155 2.903-1.657 1.057-.516 2.112-1.035 3.145-1.598.326-.163.64-.348.955-.535v.612zm0 10.256v1.251c-.141.118-.274.25-.4.396-.25.29-.59.474-.902.684-.894.636-1.851 1.143-2.777 1.707-.778.47-1.505 1.028-2.318 1.438-.563.284-1.04.625-1.215 1.36-.728-.293-1.194-.038-1.598.355-.051.053-.1.12-.148.186v-5.546l3.683-2.197 1-.558.976-.6c.648-.407 1.288-.823 1.892-1.296.569-.442 1.196-.754 1.807-1.108v3.928zm0 9.117c-.308.21-.586.458-.78.831-.09.17-.328.247-.533.254-1.524.054-2.426 1.157-3.551 1.882-.162.425-.401.732-.703.951-.292.24-.645.391-1.05.493-.511.128-.575.711-.3 1.106.233.333.613.381 1.107.087.037-.034.17-.098.235-.225.296-.605.776-.879 1.43-.904.247-.012.452-.169.656-.29.93-.555 1.927-1.024 2.762-1.713.228-.189.475-.338.727-.477v5.474l-2.192.393c-.034.006-.075.021-.085.054-.312.933-1.293.81-1.911 1.263-.35.26-.864.275-1.184.568-.938.861-1.788 1.841-2.794 2.611-.418.308-.767.627-1.192.954V30.574c.3-.2.603-.397.903-.598.392-.263.844-.5 1.075-.932.324-.592 1.099.015 1.454-.384.023-.025.063-.028.093-.045l2.303-1.31c.902-.516 1.824-.979 2.714-1.529l.816-.515v5.137zm0 15.295c-.214.067-.342.32-.476.601.186.237.339.412.476.544v6.088l-.495.36c-.413.303-.838.588-1.27.861l-.65.403-.334.198-.407.215c-1.087.57-2.18 1.122-3.246 1.723-.314.178-.554.486-.874.648-.687.343-1.387.66-2.082.985v-4.976l1.58-.89c.137-.079.274-.17.377-.289.28-.33.147-.777-.284-1.063-.476-.316-.831-.168-1.148.101-.188.16-.336.438-.525.564V45.51c.28-.134.565-.26.846-.39.342-.175.655-.362.934-.613 1.489-1.35 3.287-2.178 4.96-3.213.569-.363 1.256-.539 1.799-.92.252-.183.536-.32.819-.46v5.78zm0 15.422c-.511.352-1.01.693-1.386.895-1.13.668-2.135 1.564-3.385 2.032-.274.102-.508.29-.768.421-.367.18-.458.593-.471 1.285.66.41.887.1 1.217-.07l3.463-1.918c.423-.225.913-.339 1.33-.574v5.223l-1.902 1.031c-.305.17-.62.33-.916.514-.286.185-.578.396-.882.668-.477.452-.99.746-1.627.88-.725.153-1.288.595-1.66 1.482 1.159.346 1.936-.005 2.596-.636.16-.153.298-.398.506-.413 1.418-.105 2.192-.949 3.213-1.449.226-.112.448-.23.672-.345v6.035c-.048.015-.095.03-.142.048-.276.09-.56.17-.822.287l-4.243 1.907-1.062.442c-.48.211-1.014.456-1.524.74l-.125.084c-.48.322-.955.64-1.44.938V67.843c.672-.292 1.348-.576 2.016-.877.194-.087.378-.22.5-.412.074-.116.084-.409.004-.572-.082-.165-.343-.376-.467-.376-.324.003-.637.063-.913.185-.387.171-.763.365-1.14.558v-6.36c.94-.448 1.926-.868 2.864-1.296.678-.313 1.42-.51 2.06-.888.877-.518 1.742-1.055 2.6-1.598l1.834-1.32v6.228zm0 23.857v5.386c-.11.002-.22.03-.335.081-.383.175-.837.304-1.201.58-.302.264-.533.64-.586 1.244.512.187.923.16 1.293.046.295-.067.564-.183.829-.289v.798c0 .802-.02 1.61-.02 2.414h-6.441c-.02-.177-.152-.384-.354-.48-.5-.27-1.067-.295-1.416.258-.05.073-.097.148-.145.222h-.982V82.16c.087-.054.172-.113.26-.165l.927-.543 1.07-.59.286-.125 6.815-2.809v7.044zM4.313 12.256v-1.529l8.28-6.089 3.17-2.33.579-.427h7.257c-.491.302-.982.605-1.451.943-.93.65-1.683 1.36-2.637 1.854-1.057.56-2.137 1.07-3.052 1.863-.355.31-.681.682-1.103.862-1.312.53-2.32 1.572-3.54 2.261-.867.482-1.536 1.27-2.525 1.58-.67.208-1.244.614-1.838.965-.756.422-1.482.878-2.03 1.623-.236.322-.5.638-1.032.556-.027-.004-.052-.003-.078-.003v-2.129zM31.566.426c0-.255-.652-.313-.754-.313H20.93c-1.243 0-2.488-.01-3.731 0-2.075.016-3.207.937-4.713 2.044L2.709 9.348l-1.605 1.18c-.271.2-.916.57-1.032.861-.117.291-.028.775-.028 1.073v8.761c0 1.503-.098 3.044 0 4.545.005.082 0 .166 0 .25 0 .451 1.335.285 1.478.267.75-.097 1.672-.308 2.294-.765l9.855-7.246v77.188c0 .346-.06.751 0 1.093.006.042 0 .09 0 .132 0 .255.65.312.753.312H28.05c.816 0 1.617-.17 2.37-.484.386-.16 1.146-.457 1.146-.97V1.864c0-.413.057-.873 0-1.283-.008-.05 0-.106 0-.157z" mask="url(#7chwh39kcb)"/>
                    </g>
                    <path d="M0 0H55V100H0z" transform="translate(-207 -2661) translate(207 2356) translate(0 305)"/>
                </g>
            </g>
        </g>
    </g>
</svg>
