<svg xmlns="http://www.w3.org/2000/svg" xmlns:xlink="http://www.w3.org/1999/xlink" width="55" height="100" viewBox="0 0 55 100">
    <defs>
        <path id="h1sbrszl2a" d="M0 0.769L43.555 0.769 43.555 96.059 0 96.059z"/>
    </defs>
    <g fill="none" fill-rule="evenodd">
        <g>
            <g>
                <g>
                    <g>
                        <g transform="translate(-207 -2891) translate(207 2356) translate(0 305) translate(0 230) translate(0 2.202)">
                            <mask id="6f7e70tmvb" fill="#fff">
                                <use xlink:href="#h1sbrszl2a"/>
                            </mask>
                            <path fill="#5CFFE4" d="M39.409 93.86v.008h-8.437c-.205-.138-.362-.09-.503 0H20.932c.304-.293.606-.585.927-.844.137-.093.279-.181.425-.263.11-.06.208-.158.279-.271.157-.252-.075-.735-.41-.847-.448-.147-.84-.033-1.05.235-.03.04-.053.08-.071.123-.315.684-.896.942-1.499 1.102-.472.126-.846.369-1.034.765H4.144V82.225L9.3 72.5l6.055-11.42.362-.18c1.185-.577 2.414-1.062 3.62-1.604.187-.084.366-.215.485-.4.071-.112.081-.397.002-.555-.078-.16-.332-.365-.452-.364-.315.002-.619.061-.887.179-.626.277-1.22.625-1.845.903-.091.04-.183.077-.275.115l3.44-6.485c.29-.545.578-1.09.867-1.636.506-.198 1.024-.374 1.486-.646.851-.503 1.69-1.024 2.524-1.55l1.986-1.432 2.897-2.042 1.454-1.015 1.497-.925c.901-.55 1.823-1.065 2.753-1.568.377-.202.81-.311 1.202-.492.056-.026.111-.056.168-.082-.665 1.413-1.392 2.8-2.109 4.184l-2.416 4.652c-1.001.508-1.962 1.076-2.916 1.661-.716.45-1.419.921-2.12 1.397-.688.467-1.446 1.013-1.962 1.293-1.097.647-2.072 1.516-3.285 1.97-.266.1-.493.281-.746.41-.356.175-.444.574-.457 1.246.642.397.862.096 1.18-.068l3.362-1.86c.413-.221.894-.33 1.3-.563.643-.407 1.294-.991 1.97-1.433.758-.499 1.527-.98 2.314-1.43l-.123.236c-1.31 2.522-2.62 5.045-3.928 7.569l-2.09 1.131c-.295.164-.599.32-.888.5-.277.178-.56.383-.856.647-.462.439-.96.724-1.577.854-.705.148-1.25.577-1.611 1.438 1.123.337 1.877-.004 2.519-.617.155-.149.288-.386.49-.4 1.232-.092 1.963-.756 2.813-1.242l-.826 1.591c-1.01 1.944-2.017 3.888-3.026 5.832l-.243.11-1.03.428c-.465.204-.985.443-1.48.717l-.121.082c-.519.348-1.029.695-1.556 1.012-.344.207-.685.37-1.075.485-.374.109-.684.397-.963.682-.246.25-.58.478-.335 1.21.653.19 1.086-.056 1.494-.328.426-.281.854-.558 1.292-.819l.897-.527 1.04-.572.276-.121.736-.304-1.614 3.113-3.249 6.258-.156.3-.003.009c-.04-.116-.103-.242-.191-.38-.334.037-.607.132-.814.308-.128.126-.23.286-.3.484.288.348.58.491.875.387.071-.018.145-.051.22-.1.125-.08.204-.177.24-.295.246.305.99.4 1.21.4h7.973c-.194.24-.334.556-.373 1.003.497.182.895.155 1.255.046.475-.109.883-.351 1.313-.455.252-.058.403-.257.407-.594H39.41V93.86zM26.595 39.884c.24.185.421.188.614.035.131-.103.234-.388.18-.59-.034-.13-.151-.287-.28-.413l.253-.477c1.269-2.394 2.323-4.826 2.717-7.505.51-.378 1.052-.704 1.648-.956.35-.167.486-.465.292-.987-.463-.508-.886-.63-1.249-.324-.158.12-.328.218-.506.303.115-1.784.129-3.593.076-5.385.163-.116.327-.23.484-.35.532-.422 1.015-.894 1.681-1.083.163-.048.326-.107.458-.208 1.1-.836 2.383-1.391 3.604-1.816.448-.168.856-.42 1.257-.673.325-.204.583-.51.914-.708.268 1.328.445 2.67.548 4.018l-.66.43c-.375.256-.683.606-1.015.924-.332.315-.72.65-1.205.79-.125.037-.209.173-.302.274-.51.553-1.052 1.04-1.714 1.384-.286.146-.413.63-.525 1.02-.046.158.138.476.274.895.414-.215.734-.381 1.052-.548l2.389-1.331c.234-.134.439-.317.654-.482.163-.127.288-.302.464-.35.236-.069.471-.14.704-.213.003.219.007.435.007.653-.002 1.518-.001 3.05-.079 4.574-.465.314-.932.63-1.384.947-.41.29-.88.487-1.326.719-.589.304-1.377.403-1.724.951-.416.669-1.135.696-1.61 1.13-.89.845-1.94 1.451-3.086 1.89-.388.148-.522.47-.35.918.133.345.583.632.902.433.45-.283 1.034-.297 1.46-.569.939-.6 1.789-1.32 2.677-2.016.154-.13.296-.301.487-.352 1.133-.308 2.208-.735 3.193-1.34.2-.124.386-.27.572-.417-.081.697-.188 1.39-.33 2.077-.274 1.327-.687 2.608-1.179 3.86-.116.05-.23.1-.346.153-.928.38-1.869.702-2.738 1.168-1.486.789-2.865 1.755-4.294 2.633-1.439.992-2.866 2.016-4.273 3.051-.402.295-.813.573-1.231.836l-.63.392-.326.192-.396.208c-.423.222-.848.442-1.272.663l4.47-8.428zm-4.621-25.842l.898-.554c.628-.394 1.25-.798 1.836-1.256.554-.431 1.164-.734 1.76-1.08.227-.131.467-.243.7-.364.876-.464 1.708-1.018 2.665-1.307 1.272-.405 2.504-.852 3.614-1.537.688.722 1.313 1.505 1.874 2.337-.235.185-.451.393-.624.666-.303.477-.653.854-1.123 1.079-.666.318-1.368.575-2.04.884-.865.376-1.71.858-2.566 1.299-.53.274-1.091.487-1.315 1.197-1.564-1.183-3.727-1.463-5.68-1.364zm-.806-2.041c-.892.608-1.859 1.1-2.766 1.687-.44.28-.92.545-1.22.987-.423.622-1.01.95-1.637 1.247l-1.214.619c-.428.24-.836.526-1.303.675-.425.135-.813.276-1.009.75-.055.133-.145.27-.262.307-.9.27-1.592.884-2.315 1.448-.389.305-.796.585-1.153.935-.427.438-.89.786-1.508.916-.583.11-1.047.417-1.152 1.313.775.355 1.345.201 1.826-.075.423-.245.86-.468 1.29-.7l1.248-.753c.825-.513 1.627-1.066 2.347-1.763.497-.474 1.085-.83 1.696-1.153-.744 1.547-.812 3.173-.812 4.876v1.61c-.177.084-.357.162-.544.232-.307.113-.582.308-.847.503-.13.094-.257.243-.287.424-.03.179.012.465.12.639.098.16.364.342.488.323.367-.057.739-.145 1.04-.335.01-.007.02-.012.03-.02v1.455H10.24c.31-.057.575-.238.844-.394.214-.123.408-.366.156-.72-.171-.243-.481-.504-.708-.557-.843-.197-1.203.358-1.045 1.542.138.071.265.108.386.13h-5.73V24.44c.466.039.823-.141 1.113-.477.113-.13.18-.456.1-.641-.081-.18-.388-.395-.57-.429-.255-.047-.464-.025-.643.049.001-1.668.029-3.319.336-4.974.043-.23.097-.456.148-.684.257-.107.42-.363.41-.859-.06-.043-.113-.076-.169-.112.632-2.292 1.663-4.459 3.085-6.377.913-1.235 1.752-2.136 2.874-3.089.273-.23.551-.455.836-.671.153-.117.31-.228.464-.343l.087-.062.147-.099c.624-.41 1.27-.778 1.93-1.124l.07-.038.06-.025c.177-.082.353-.162.532-.24.36-.154.723-.293 1.088-.43l.147-.052c.17-.053.341-.107.513-.157.38-.11.765-.202 1.15-.295l.068-.016.042-.008c.197-.035.394-.07.592-.102.4-.062.8-.111 1.203-.15l.171-.014h.005c.176-.006.351-.018.527-.024.423-.012.846-.012 1.27 0 .213.005.425.013.638.023l.305.019c.17.013.339.037.508.055-.343.224-.67.474-.962.785-.544.581-1.185 1.041-1.805 1.524-.705.55-1.693.632-2.255 1.427-.049.069-.201.017-.301.033-.972.129-1.722.67-2.462 1.214-.447.326-.85.715-1.286 1.061-.282.225-.623.378-.869.646-.434.473-.837.975-1.593.905-.763.67-1.54 1.312-2.465 1.736-.406.193-.693.608-1.074.858-.44.293-.71.697-.557 1.558.742.563 1.21.232 1.63-.05.974-.657 1.995-1.238 2.83-2.111.333-.321.757-.528 1.15-.765 1.933-1.172 4.281-1.828 5.932-3.44.159-.168.367-.278.572-.376 1.003-.481 1.818-1.12 2.817-1.608 1.025-.5 2.048-1.003 3.05-1.55.586-.293 1.137-.655 1.707-.976.207.073.415.149.607.225.635.249 1.254.536 1.853.86.404.219.79.461 1.167.713-.536.364-1.009.63-1.617.968-.946.533-1.98.936-2.863 1.56-1.763 1.196-3.475 2.476-5.219 3.709zm-1.477 4.385c.006-.013.065-.03.128-.044l-.128.044zm17.178-3.365c.473 1.005.872 2.046 1.201 3.105-.548.307-1.105.599-1.63.954-.811.551-1.656 1.054-2.483 1.586-.157.11-.262.337-.444.37-.984.184-1.451 1.301-2.54 1.29-.096 0-.188.088-.237.175-.15.267-.325.495-.513.706-.122-1.412-.405-2.825-1.092-4.057.607-.377 1.21-.758 1.778-1.192.566-.435 1.158-.773 1.852-.916.516-.115.988-.336 1.469-.53.948-.384 1.766-.97 2.639-1.49zm5.437 67.625H20.115l1.962-3.78 5.522-10.638 6.22-11.986c1.492-2.877 2.986-5.753 4.479-8.63 1.548-2.982 3.201-5.95 4.174-9.181.823-2.732.994-5.564 1.052-8.4.068-3.245.07-6.49-.505-9.694-.968-5.378-3.483-10.747-8.04-13.98C29.655.584 22.369-.065 16.196 1.719 9.823 3.56 4.414 7.99 1.724 14.096.536 16.791.01 19.673.002 22.61c-.005 1.842 0 3.684 0 5.527v1.663c0 .476.967.54 1.244.54H14.468c.928 0 2.898-.44 2.898-1.65 0-2.506-.035-5.014 0-7.518.015-1.115.269-2.427.804-3.314.122-.2.257-.395.405-.579.072-.09.148-.177.227-.262l.07-.067c.103-.092.213-.177.317-.268.022-.018.03-.026.044-.04.012-.006.017-.008.033-.018.08-.045.164-.093.241-.143.023-.01.031-.016.048-.024.042-.018.083-.038.125-.055l.136-.054.035-.012c.054-.013.107-.023.128-.03l.043-.014.463-.065.041-.007.006.001c.137.01.28-.01.417-.01.157 0 .314.006.472.012.02.006.349.034.397.041.882.125 1.698.411 2.416 1.084 1.373 1.286 1.728 3.342 1.87 5.203.186 2.449.166 4.981.008 7.43-.175 2.681-.983 5.322-2.12 7.587l-.084.164c-.09.174-.184.345-.275.518l-7.047 13.29L6.34 70.86C4.31 74.69 2.278 78.518.25 82.349l-.092.174c-.023.042-.029.08-.045.12-.064.13-.11.27-.11.432v12.444c0 .477.967.541 1.244.541H40.654c.927 0 2.898-.441 2.898-1.65V81.186c0-.476-.967-.54-1.246-.54z" mask="url(#6f7e70tmvb)"/>
                        </g>
                        <path fill="#5CFFE4" d="M33.51 87.67c-.278.001-.638-.05-.782.139-.435.567-1.148.406-1.728.588-.515.159-.966.478-1.42.77-.299.191-.25.652-.062 1.042.191.397.515.439.792.357.063-.019.125-.042.185-.068L33.2 89.32l-.03-.06c.272-.118.55-.226.813-.36.244-.126.449-.323.297-.761-.172-.503-.5-.472-.769-.47M36.44 86.304c-.788.17-1.41.606-1.935 1.37.696.614 1.067.394 1.393.206.37-.197.688-.504.994-.809.06-.062.016-.36-.063-.496-.076-.13-.296-.292-.389-.271M37.164 86.394c.887.428 1.47.262 1.906-.242.112-.13.179-.455.098-.64-.08-.182-.386-.396-.569-.43-.826-.155-1.208.356-1.435 1.312M25.68 91.294c-.298.245-.329.677-.103 1.196 1.04.356 1.054.348 1.368-.806-.498-.562-.923-.67-1.265-.39M27.787 89.977l-.028.02c-.31.244-.406.857-.193 1.208.197.325.584.409.981.21l.022-.012.193-.097c.04-.08.174-.269.24-.513.03-.113-.046-.355-.134-.493-.243-.386-.75-.52-1.08-.323M24.529 92.447c-.426-.196-1.021.357-.912.845.037.17.255.462.384.509.247.087.49.039.705.045.12-.134.239-.208.291-.337.065-.157.16-.405.089-.533-.122-.214-.361-.439-.557-.529M7.614 81.358c-.256.061-.473.203-.81.362.148.293.23.599.4.76.28.262.496.11.67-.05.093-.086.249-.142.268-.27.024-.163-.018-.403-.115-.577-.062-.11-.315-.247-.413-.225M18.55 68.342c.128.01.24-.017.344-.071.21-.11.382-.324.571-.562-.406-.276-.675-.385-.88-.309-.1.037-.186.12-.262.252-.093.14-.091.284-.31.587.114.032.236.045.331.06.073.024.141.038.205.043M35.568 93.564c-.226.14-.287.45-.059.765.128.176.446.355.573.304.221-.087.359-.35.558-.567-.484-.632-.795-.676-1.072-.502M33.487 94.71c-.377.005-.611.246-.455.815.336.349.62.333.84.16.107-.085.201-.39.142-.491-.122-.207-.385-.486-.527-.484M38.504 91.803c-.061.076-.138.144-.187.239-.053.097-.124.214-.106.33.033.206.09.487.21.608.116.112.366.137.487.069.463-.261.34-.624-.404-1.246M9.821 87.597l-.638.461c.74.792.848.838.997.578.234-.302.165-.628-.359-1.039M12.624 86.685c.065-.106-.005-.395-.097-.575-.056-.11-.297-.251-.406-.242-.404.033-.605.264-.325.917.42.234.681.136.828-.1M15.082 91.027c-.597.65-1.336 1.075-2.075 1.513-.35.195-.621.46-.52 1.297.227.07.374.15.483.14.38-.042.692-.122 1.041-.293.364-.18.7-.4 1.024-.64.644-.484 1.234-1.048 1.877-1.533.23-.174.296-.574-.149-1.042-.711-.105-1.28.121-1.681.558M22.926 86.55c-.843-.196-1.483.348-1.717 1.501.998.293 1.576-.14 2.157-.536.092-.062.096-.39.02-.561-.073-.163-.312-.37-.46-.405M19.848 88.457c-.484-.261-1.036-.284-1.374.251l-.455.699-.135.257c.206.21.39.329.556.381.28.101.514.031.72-.09.367-.218.785-.534.994-.837.13-.174-.026-.526-.306-.66M32.886 31.444c.237-.055.53-.25.554-.499.045-.466-.352-.686-.756-.86-.187.186-.395.39-.575.57.13.6.426.871.777.789M28.63 41.198c.254-.18.454-.44.745-.736-.85-.77-1.204-.853-1.482-.37-.098.171-.073.562.041.81.158.348.486.443.696.296M5.595 17.313c-.207.152-.264.826-.045 1.022.193.173.453.195.555.235.433-.298.487-.57.292-.903-.177-.302-.613-.495-.802-.354" transform="translate(-207 -2891) translate(207 2356) translate(0 305) translate(0 230)"/>
                        <path d="M0 0H55V100H0z" transform="translate(-207 -2891) translate(207 2356) translate(0 305) translate(0 230)"/>
                    </g>
                </g>
            </g>
        </g>
    </g>
</svg>
