<svg xmlns="http://www.w3.org/2000/svg" xmlns:xlink="http://www.w3.org/1999/xlink" width="55" height="100" viewBox="0 0 55 100">
    <defs>
        <path id="zqwmcv6nba" d="M0 0.413L44.091 0.413 44.091 97.02 0 97.02z"/>
    </defs>
    <g fill="none" fill-rule="evenodd">
        <g>
            <g>
                <g>
                    <g>
                        <g transform="translate(-207 -3221) translate(207 2356) translate(0 305) translate(0 560) translate(0 1.567)">
                            <mask id="2cqcjlq1pb" fill="#fff">
                                <use xlink:href="#zqwmcv6nba"/>
                            </mask>
                            <path fill="#5CFFE4" d="M20.181 15.66l-.018.005-.032.007c-.003 0-.006 0-.008.002-.021.004-.03.006-.014 0h.006l.04-.011.008-.002.099-.025.066-.007c-.033.006-.089.02-.137.03-.003 0-.007 0-.01.002zm-.106 36.62v-3.732c1.951-1.074 4.004-1.986 5.767-3.388 1.147-.971 2.565-1.61 3.873-2.38.582-.351 1.196-.65 1.762-1.025 1.503-1.066 3.105-1.972 4.693-2.903.78-.45 1.58-.873 2.371-1.307.34-.183.676-.371 1.006-.568l-.013.118c-.045.351-.098.701-.162 1.047-.19 1.04-.476 2.055-.912 3.014-.06.136-.121.263-.181.385-.301.605-.596 1.052-.989 1.516-.158.185-.331.373-.527.575-.191.197-.391.387-.596.571-.037.034-.075.066-.112.098-.07.062-.139.125-.21.185l-.021.017-.025.02-.04.034-.02.016-.079.065-.02.016-.047.038-.005.005c-.427.33-.864.643-1.309.947-.08.055-.16.112-.24.166-.521.347-1.05.677-1.583 1.003-.126.077-.25.155-.376.231l-.06.04c-.195.138-.543.458-.4.69.022.037.057.071.107.102l.022.014-1.31.743-1.074.64-.525.32-.424.22c-1.388.738-2.721 1.567-4.07 2.376-.148.095-.31.196-.48.301-.743-.087-1.485-.135-2.191-.168-.533-.025-1.068-.036-1.6-.041zm.904-10.155c.099-.009.198-.018.295-.029.311-.031.62-.067.929-.111l.187-.03c.281-.043.563-.09.842-.146.067-.012.133-.024.199-.038.315-.065.629-.138.942-.22l.206-.057c.323-.09.645-.187.965-.298l.003-.001c1.115-.39 2.165-.956 3.011-1.73.553-.51 1.012-1.113 1.338-1.823.06-.133.128-.26.18-.4.048-.136.088-.274.13-.411.165-.545.274-1.105.344-1.672 1.408-.722 2.823-1.442 4.002-2.467.21-.179.471-.303.728-.417 1.277-.52 2.263-1.299 3.454-1.928.378-.198.755-.4 1.133-.6-.007.53-.017 1.059-.029 1.587-.012.517-.026 1.034-.04 1.55-.012.411-.027.828-.042 1.247-1.005.71-2.022 1.398-3.093 2.008-1.121.683-2.277 1.318-3.393 2.009-.535.34-1.133.642-1.502 1.162-.52.732-1.206 1.174-1.936 1.594l-1.418.851c-.514.3-1.01.647-1.563.859-.504.19-.963.383-1.229.903-.074.145-.19.3-.335.338-1.1.32-1.986.977-2.908 1.586-.498.327-1.012.633-1.478 1.007-.27.216-.54.429-.826.613v-4.865c.301-.018.603-.043.904-.071zm17.31-21.546c-.992.759-1.964 1.57-3.051 2.177-1.246.674-2.44 1.36-3.607 2.204-.317.227-.62.485-.951.691v-4.016l2.882-1.71c.496-.298.906-.734 1.38-1.07.706-.493 1.413-.957 2.147-1.426.209-.126.443-.214.649-.342.38-.234.738-.5 1.12-.727.134.562.249 1.13.346 1.702.098.574.182 1.15.25 1.729-.407.252-.805.511-1.164.788zm-7.61 11.654v-4.007c.22-.12.437-.246.64-.39.616-.444 1.24-.836 1.96-1.115.811-.332 1.526-.814 2.264-1.266.633-.395 1.201-.9 1.852-1.262l2.335-1.283.012.15c.072 1.203.11 2.41.126 3.617-.428.283-.84.592-1.22.961-.677.673-1.457 1.227-2.212 1.806-.837.685-2.074.784-2.828 1.638-.066.073-.244.03-.366.053-.982.18-1.785.672-2.563 1.203v-.105zm7.282-18.705c-.689.403-1.393.782-2.096 1.164-.79.416-1.511.615-2.002 1.387-.282.466-.753.79-1.183 1.115-.75.553-1.489 1.11-2.24 1.656-.018-.08-.035-.159-.055-.238-.06-.238-.131-.475-.22-.706-.15-.39-.34-.77-.588-1.137-.228-.339-.478-.644-.75-.917-.064-.066-.135-.123-.201-.186l.044-.03c.7-.483 1.391-1.001 2.166-1.347.81-.365 1.541-.82 2.226-1.378.244-.195.484-.363.772-.528l.896-.491c.259-.143.61-.18.805-.38.29-.297.618-.542.966-.763.219.336.43.677.623 1.024.319.57.593 1.157.837 1.755zM6.665 13.15c1.148-.971 2.566-1.609 3.873-2.381.582-.35 1.197-.649 1.762-1.024 1.503-1.066 3.106-1.972 4.693-2.903.781-.45 1.58-.873 2.37-1.306.795-.432 1.58-.87 2.285-1.438.676-.518 1.408-.907 2.126-1.338.155-.092.314-.18.473-.264.305.054.606.12.907.19.444.104.885.22 1.32.354.249.077.495.16.74.245.935.333 1.836.752 2.7 1.237-.124.075-.248.15-.375.223-.598.333-1.039.638-1.523.946-.257.165-.485.407-.777.477-.632.152-1.101.53-1.515.995-.495.557-1.157.857-1.738 1.281-.566.397-1.073.818-1.702 1.177-.615.365-1.238.719-1.875 1.053-.451.237-.779.677-1.17 1.016-.27.232-.534.474-.83.672-.887.605-1.852 1.086-2.783 1.61-.921.534-1.862 1.036-2.794 1.554l-2.175 1.233-1.074.64-.524.32-.424.221c-1.388.738-2.723 1.567-4.072 2.376-.1.067-.216.137-.33.208.006-.5.02-1 .057-1.499.055-.701.152-1.4.29-2.092.093-.462.201-.92.328-1.372.063-.226.13-.452.202-.676.09-.282.188-.56.29-.84.433-.278.858-.571 1.265-.895zm.42-2.512c1.332-2.157 3.068-4.063 5.066-5.475.243-.171.495-.33.746-.492.125-.08.247-.167.373-.246l.086-.05.003-.003.122-.071.096-.056.025-.015.062-.037c.019-.01.04-.02.059-.032.182-.1.364-.198.55-.292.2-.102.403-.201.607-.297l.307-.14.066-.029c.033-.015.07-.03.102-.043v-.001l.003-.001.056-.023.074-.029.212-.082.105-.041c.24-.092.48-.175.722-.26l.033-.01.235-.071c.073-.021.147-.04.22-.06.148-.041.295-.083.444-.12.025-.008.07-.017.122-.03h.006c.156-.034.368-.079.347-.077-.005 0-.023.003-.054.01-.03.004-.076.013-.136.024.253-.047.505-.101.76-.144.229-.04.46-.068.69-.104l.006-.002h.001l.144-.015.202-.02c.278-.025.557-.032.835-.046-.94.66-1.895 1.3-2.896 1.87-1.122.683-2.276 1.318-3.393 2.01-.535.34-1.133.642-1.503 1.162-.518.732-1.205 1.175-1.936 1.594l-1.417.852c-.514.299-1.009.646-1.565.858-.311.118-.608.237-.851.436.081-.138.18-.265.263-.402zm-.946 17.285l.89-.424c.544-.246.904-.49 1.364-.733l1.313-.72c.834-.447 1.72-.81 2.534-1.29.305-.181.631-.334.934-.526.079-.057.154-.117.23-.178v3.87H6.138zm14.106-13.8c-.757.178-1.502.429-2.205.757-.527.246-1.031.536-1.5.871-.469.334-.903.714-1.287 1.14-.515.566-.942 1.216-1.257 1.951-.53 1.246-.587 2.533-.592 3.846-.62.05-1.136.34-1.52.525L7.538 25.56c-.381.198-.677.394-1.127.596l-1.268.603-.911.436v-5l.193-.094c.529-.272 1.045-.425 1.535-.704.67-.39 1.281-.874 1.952-1.256.457-.26.917-.516 1.383-.76l.72-.371.875-.513c1.14-.646 2.353-1.162 3.5-1.796.799-.441 1.498-1.07 2.318-1.463 1.608-.678 2.947-1.75 4.409-2.639.546-.33 1.081-.678 1.615-1.026.54-.345 1.074-.694 1.552-1.057.995-.712 2.027-1.362 3.181-1.825.425-.17.833-.383 1.224-.62l1.03-.618.517-.308.589-.329c.46-.256.914-.521 1.365-.79.338.261.665.54.988.827.54.486 1.058 1.004 1.543 1.553-.357.341-.818.574-1.238.846-1.43.888-2.515 1.68-3.702 2.55-1.113.829-2.163 1.755-3.297 2.552l-.011-.005c-1.574-.594-3.377-.67-5.09-.437-.38.052-.76.121-1.14.21zm.11 1.503l-.133.032.017-.004.053-.014.012-.003.043-.01.009-.001zm.04-.008c-.004 0-.009 0-.015.002l-.021.003h-.005c-.023.005-.053.009-.085.012l.045-.008.014-.003.036-.006.012-.002.037-.005.007-.001.014-.001c.022-.003.016 0-.022.006-.007 0-.006 0-.016.003zm3.866 24.45l.008-.003.158-.069c-.003.01-.024.02-.054.034l-.03.01-.082.029zm13.802 13.541c.175.316.33.64.47.97.395.933.652 1.916.832 2.92-.435.373-.917.673-1.463.862-.898.311-1.55.897-2.022 1.75-.097.174-.262.393-.4.355-.96-.177-1.493.462-2.203.758-.056.024-.088.094-.135.148l.204 1.04c.534.232.886.035 1.215-.128.676-.35 1.274-.677 1.966-1.13.705-.478 1.422-.942 2.194-1.325.303-.147.596-.312.89-.475.083.88.13 1.76.163 2.624.029.739.043 1.481.063 2.224-.528.363-1.024.767-1.425 1.227-.271.307-.574.61-1.139.532-.39-.055-.74.216-1.105.34.04.444.07.79.102 1.173.71.37 1.168.28 1.564-.045.308-.252.59-.552.943-.728l.603-.3.498-.293c.013.978.024 1.957.02 2.936-.01 2.318-.068 4.634-.18 6.938-.003.043-.003.085-.004.127-.02.382-.04.765-.065 1.149-.04.626-.091 1.254-.157 1.881-.209.106-.426.2-.666.26-.674.182-1.281.49-1.521 1.42.777.29 1.426.2 1.97-.077-.217 1.318-.54 2.614-1.053 3.85-.556 1.34-1.304 2.628-2.18 3.822-.073-.193-.287-.42-.657-.7-.078.076-.186.154-.238.243-.054.095-.132.205-.116.319.03.2.084.474.204.594.086.086.244.127.37.118-.255.323-.516.64-.789.944-.235.265-.475.522-.722.771-.246.25-.498.491-.752.726-.178.16-.346.31-.513.45-.334.283-.661.534-1.03.788-.184.129-.378.258-.589.393-.209.134-.42.262-.632.386l-.02.013c-.006.002-.007.004-.011.006l-.083.042c-.099.051-.197.105-.297.156-.2.103-.401.202-.606.297l-.046.022-.078.035c-.015.008-.032.015-.05.022l-.013.007-.005.003-.172.072-.015.007c-.018.007-.036.014-.05.021l-.016.007-.02.008c-.245.097-.49.189-.739.276l-.31.104-.079.022c-.234.064-.468.13-.705.19l-.144.035-.107.025-.016.003-.008.002-.26.055c-.158.03-.318.054-.477.08-.12.02-.239.043-.36.061.023-.233-.088-.502-.446-.803-.385.22-.845.414-1.223.711-.108.085-.211.177-.315.266-.189.008-.376.02-.565.022-.312.005-.67-.002-1.035-.018-.346-.017-.698-.04-1.024-.07-.35-.033-.696-.074-1.043-.122l-.042-.006h-.001c-.05-.007-.098-.016-.147-.024l-.124-.02c-.104-.019-.206-.04-.31-.058-.104-.02-.207-.037-.311-.058-.366-.074-.737-.158-1.107-.252-.37-.095-.738-.199-1.104-.311-.242-.075-.477-.16-.713-.242.192-.114.388-.223.59-.324.145-.072.277-.18.378-.303.228-.27-.005-.744-.383-.843-.568-.148-1.06.023-1.324.39-.174.237-.377.418-.597.562l-.055-.021c-.408-.182-.81-.378-1.203-.588-1.185-.63-2.307-1.393-3.331-2.266.377-.233.753-.464 1.14-.677.312-.173.469-.576.07-1.08-.773-.15-1.487.06-2.047.492-.097.073-.2.135-.3.203-.123-.127-.253-.248-.374-.379-.56-.61-1.075-1.261-1.532-1.951-1.139-1.712-1.93-3.594-2.44-5.556-.127-.49-.237-.986-.33-1.484-.138-.75-.24-1.507-.307-2.267-.068-.76-.101-1.525-.103-2.287-.005-2.047-.001-4.092 0-6.137h9.171v2.509c-.34.244-.674.494-.995.757l-.875.712c-.234.189-.38.308-.579.457-.377.282-.774.535-1.216.74-.429.195-.777.566-1.092.924-.115.14-.361.36-.313.458 0 .135.059.332.246.658.122.061.23.099.324.117.047.01.092.014.134.014.072-.024.144-.053.212-.084.276-.13.514-.31.745-.496.514-.413 1.03-.82 1.558-1.213l.857-.616.993-.69v.19l-.002.724c-.002.24-.003.482-.002.723 0 .12.004.24.006.36.022 1.323.14 2.634.695 3.876.556 1.246 1.402 2.179 2.427 2.83.293.186.601.35.92.49.16.071.324.135.49.196.331.118.673.215 1.025.29.163.036.327.065.493.092-.057.173-.093.362-.092.574.74.146 1.336-.136 1.862-.459.778-.015 1.578-.103 2.365-.272 1.22-.26 2.413-.71 3.457-1.367s1.938-1.521 2.562-2.61c.117-.208.223-.417.316-.631.065-.146.117-.295.17-.444l.099-.05c.42-.217.84-.42 1.28-.592.507-.197.45-.4-.02-1.144-.343-.067-.645-.088-.92-.043.02-.136.041-.27.056-.406.071-.692.09-1.393.09-2.09V62.803c0-.707.007-1.415-.008-2.122-.008-.354-.02-.707-.041-1.06-.02-.353-.051-.705-.093-1.057-.044-.36-.108-.721-.187-1.078.565-.273 1.133-.54 1.671-.856.304-.182.63-.334.934-.527.35-.255.68-.557.934-.96-.138-.221-.258-.413-.37-.588-.772-.052-1.402.315-1.854.53l-1.774.959c-.01-.025-.019-.051-.03-.076-.007-.016-.018-.032-.026-.049-.127-.276-.282-.537-.452-.789-.316-.465-.7-.887-1.187-1.227-.3-.208-.616-.386-.946-.539-.33-.152-.674-.28-1.026-.392.49-.32.962-.668 1.47-.956.456-.26.915-.516 1.383-.759l.718-.373.876-.512c.894-.506 1.832-.935 2.749-1.402.128.087.253.18.38.269.485.342.965.693 1.42 1.072.574.478 1.115.99 1.603 1.545.032.037.058.078.09.116-.283.174-.572.34-.857.514-.604.372-1.158.838-1.677 1.332-.157.151-.127.53-.182.806l.251.25c.484-.162.983-.29 1.446-.496.364-.161.676-.426 1.02-.627l.902-.534c.082.13.172.255.246.391zm-1.578-7.085c.174-.11.348-.22.522-.332.116-.076.231-.154.347-.231.165-.11.33-.222.493-.336.117-.081.233-.164.349-.248.158-.115.316-.23.47-.35.115-.086.228-.175.34-.263.154-.123.304-.248.454-.374.107-.092.214-.183.318-.276.151-.135.298-.275.443-.415.095-.093.191-.184.284-.279.155-.16.304-.326.451-.493.074-.084.151-.164.223-.25.213-.258.42-.524.611-.802.115-.167.212-.341.313-.514.154-.258.294-.524.421-.795.448-.955.741-1.976.942-3.019.1-.521.177-1.048.24-1.576.062-.528.108-1.055.146-1.577.041-.557.077-1.116.108-1.675.06-1.12.1-2.244.118-3.37.01-.564.013-1.126.013-1.69-.002-1.127-.023-2.254-.065-3.378-.02-.562-.046-1.122-.075-1.682-.03-.56-.066-1.118-.105-1.675-.055-.787-.124-1.58-.217-2.372-.19-1.584-.476-3.16-.947-4.678-.236-.758-.52-1.501-.86-2.222-.554-1.177-1.223-2.278-1.988-3.294-.51-.677-1.063-1.317-1.655-1.917-.59-.6-1.22-1.16-1.882-1.679-.331-.26-.67-.507-1.017-.745-.57-.391-1.163-.744-1.77-1.076-.61-.33-1.235-.632-1.877-.9-.458-.192-.926-.369-1.398-.528-.947-.32-1.919-.573-2.91-.753-.496-.091-.996-.163-1.5-.216-.544-.057-1.09-.096-1.639-.115C23.16.392 22.127.422 21.1.516c-1.027.094-2.05.253-3.063.472-1.516.33-3.005.8-4.436 1.4-3.338 1.402-6.367 3.518-8.715 6.248-.671.78-1.286 1.61-1.837 2.49-.998 1.587-1.746 3.301-2.244 5.086-.125.446-.234.895-.328 1.35-.281 1.362-.423 2.757-.427 4.16-.006 2.316 0 4.632 0 6.948v.708c0 .032.01.062.027.088.123.187.619.248.72.248H14.15c.807 0 1.579-.147 2.325-.465.099-.044.218-.094.342-.154.308-.15.637-.359.738-.652.02-.058.031-.12.031-.185 0-.66-.007-1.321-.017-1.984-.02-1.325-.046-2.653-.03-3.977.005-.662.024-1.323.057-1.981.036-.707.216-1.418.49-2.08.092-.22.194-.436.305-.643.166-.311.357-.586.571-.85.072-.088.134-.18.215-.265.096-.103.196-.203.299-.299l.17-.145.003-.004.04-.035c.057-.043.115-.086.174-.126.071-.05.144-.095.217-.141l.032-.017.008-.003c.015-.007.03-.014.05-.02.014-.006.029-.01.044-.014l.027-.01.135-.041.002-.001h.005c.078-.01.148-.02.16-.025h.004c.12-.008.24-.013.357-.014h.055c.103 0 .208.002.312.008.046.003.093.01.14.013.08.008.16.013.242.026.127.017.257.04.39.07l.022.003c.28.063.553.145.818.246.79.303 1.5.777 2.088 1.415.3.325.546.68.745 1.058.2.377.353.775.469 1.186.173.617.261 1.263.296 1.907.01.216.015.43.015.645v9.93l.003.895c.003.598.003 1.198-.02 1.795-.013.298-.032.596-.058.893-.09.992-.3 2.007-.749 2.901-.184.367-.252.492-.412.676-.052.062-.115.13-.197.215-.105.114-.222.216-.339.318.064-.073-.102.021-.226.103l-.017.012-.02.014-.026.019c-.005.003-.008.006-.011.01-.01.005-.017.011-.022.017l-.007.006-.01.01c0 .003-.002.004-.002.005 0 .002.002.003.006.003h.005l.024-.008.013-.004.048-.022.02-.009c.027-.012.062-.029.102-.05-.076.04-.149.082-.225.118l-.139.068h-.004l-.035.012-.047.014-.002.001-.02.005-.28.073c-.29.051-.579.1-.869.142-.173.016-.347.035-.521.05-.366.03-.732.053-1.099.07-.334.017-.736.029-1.107.036l-.272.005c-.262.005-.494.007-.652.007-.035 0-.07.002-.104.003l-.044.002c-.2.004-.401.015-.604.036l-.036.005h-.006l-.002.001c-.05.005-.1.014-.15.022-.042.006-.084.01-.126.017l-.178.032c-.068.013-.135.027-.204.043-.046.01-.093.021-.139.033-.09.022-.177.045-.265.07l-.014.007c-.163.048-.322.103-.47.162l-.03.011c-.068.029-.134.058-.198.09-.024.01-.045.022-.069.033-.129.066-.25.137-.355.212l-.001.001c-.047.035-.089.07-.129.107-.02.017-.038.034-.055.052-.037.036-.073.074-.102.112-.026.026-.05.055-.071.083l-.009.01c-.018.027-.032.053-.046.08-.003.007-.009.014-.012.02-.01.026-.015.053-.02.08-.002.008-.006.016-.007.026-.004.035-.002.07.009.107V53.73c0 .097.088.168.205.22.078.034.169.06.254.078.129.027.244.038.287.038.7.001 1.4.009 2.1.036.701.029 1.4.077 2.096.158.139.016.278.033.417.053l.066.009.099.019c.247.044.494.09.738.148.171.042.34.09.51.14.263.076.52.16.773.263l.05.02h.002c0 .002.003.003.004.003l.061.032c.09.044.178.088.264.136.167.092.33.193.484.304.16.115.315.24.46.375.146.134.282.279.406.433.051.062.1.13.148.202.048.071.095.149.141.228.228.396.42.877.557 1.332.027.09.053.181.076.268.049.192.093.384.13.578.267 1.355.276 2.754.276 4.13v10.393c0 .857.03 1.726.008 2.588-.008.287-.02.575-.043.86-.097 1.25-.464 2.515-1.138 3.58-.067.106-.14.21-.218.312-.067.087-.138.17-.211.254-.01.012-.02.026-.031.037-.17.19-.355.365-.55.525.009-.008.006-.01-.003-.007h-.003c-.01.005-.027.012-.045.023l-.013.007-.071.043-.005.003-.089.055-.002.002-.087.057c-.081.055-.122.091-.05.058-.057.028-.113.057-.171.084l-.003.001-.004.002h-.001l-.044.013-.03.007-.018.003c-.059.008-.109.012-.126.014l-.008.001.14-.024.063-.011c.01-.002.01-.003.002-.002-.037.003-.262.035-.32.038l-.043.001c-.08 0-.238.001-.272.004h-.002c-.16-.006-.308-.016-.454-.03l-.025-.003c-.136-.014-.268-.033-.4-.057-.027-.005-.054-.013-.08-.019-.115-.023-.23-.049-.349-.083-.131-.037-.27-.084-.413-.137l-.05-.016c-.52-.195-1.017-.49-1.459-.854-.11-.09-.215-.186-.32-.285-.307-.297-.58-.627-.804-.978-.111-.176-.213-.355-.306-.535-.55-1.084-.75-2.242-.822-3.428-.01-.198-.02-.397-.025-.595-.017-.53-.015-1.065-.015-1.598v-5.177c0-.065-.04-.118-.1-.161-.062-.044-.144-.079-.23-.104-.172-.052-.359-.072-.416-.072H3.486c-.201 0-.401.01-.599.028-.394.038-.781.114-1.16.231-.19.059-.379.128-.565.207-.2.085-.479.203-.706.363-.058.04-.111.084-.16.13-.147.137-.247.302-.247.498 0 .742-.009 1.488-.02 2.238-.02 1.5-.046 3.013-.014 4.519.071 3.389.435 6.746 1.806 9.86.153.346.317.689.495 1.029.613 1.17 1.347 2.24 2.18 3.213 3.606 4.21 9.06 6.547 14.641 6.922.629.042 1.26.061 1.89.06.634-.002 1.265-.026 1.897-.072.316-.024.63-.052.946-.086 1.574-.172 3.134-.481 4.65-.932 1.819-.542 3.574-1.285 5.213-2.236.805-.467 1.57-.993 2.293-1.57.721-.577 1.401-1.203 2.04-1.87.636-.669 1.233-1.378 1.786-2.121.553-.742 1.065-1.517 1.534-2.317.274-.463.51-.94.726-1.42.09-.204.176-.407.257-.611.148-.373.283-.751.402-1.132.14-.447.266-.899.373-1.358.2-.858.347-1.733.453-2.624.14-1.171.24-2.347.308-3.526.068-1.164.106-2.33.126-3.499.012-.606.017-1.213.02-1.819.002-.595.002-1.19-.001-1.785-.005-1.178-.016-2.355-.023-3.528-.008-1.264 0-2.563-.042-3.863-.043-1.32-.14-2.641-.36-3.931-.094-.55-.222-1.092-.367-1.628-.08-.295-.158-.59-.256-.879-.067-.2-.152-.39-.232-.585-.449-1.093-1.064-2.078-1.812-2.962-.43-.507-.9-.982-1.4-1.431-.523-.47-1.076-.913-1.652-1.327-.31-.223-.623-.436-.94-.647-.27-.18-.54-.354-.813-.527l.002-.001.33-.21z" mask="url(#2cqcjlq1pb)"/>
                        </g>
                        <path fill="#5CFFE4" d="M34.423 88.042c.248-.092.153-.09 0 0M30.022 85.47c-.323.055-.74.068-.91.29-.509.67-1.336.636-2.013.932-.6.262-1.126.677-1.656 1.064-.358.261-.298.726-.069 1.088.231.369.603.354.917.22.076-.03.147-.065.217-.102l3.137-1.717-.033-.057c.315-.172.637-.334.943-.522.275-.169.504-.407.343-.841-.184-.498-.56-.408-.876-.355M31.17 85.295c.128.09.246.156.355.203.561.265.912.057 1.25-.102.449-.211.868-.54 1.265-.864.08-.066.064-.367-.013-.503-.074-.129-.315-.285-.428-.26-.879.195-1.65.606-2.295 1.336l-.134.19M36.31 82.43c-.955-.125-1.475.415-1.864 1.4.995.398 1.7.206 2.28-.326.147-.136.269-.472.198-.658-.068-.183-.402-.39-.613-.417M21 90.83c-.339.322-.364.78-.096 1.274 1.202.142 1.218.13 1.554-1.144-.583-.476-1.07-.497-1.459-.13M24.138 88.792c-.272-.046-.58.04-.793.238-.35.321-.441.978-.183 1.292.238.291.688.29 1.141-.003.03-.024.062-.047.236-.176.033-.08.137-.264.203-.486l.04-.12c.03-.12-.062-.354-.17-.477-.12-.14-.288-.228-.474-.268M19.703 92.29c-.49-.115-1.14.578-1.025 1.08.039.173.28.441.429.463.28.041.561-.066.81-.107.141-.171.279-.278.34-.427.075-.18.179-.46.093-.578-.143-.198-.423-.38-.647-.432M32.891 64.463c-.453-.478-.809-.808-1.304-.64-.45.153-.586.559-.637 1.067-.033.332.259.68.533.602.53-.15 1.12-.24 1.408-1.029M26.542 94.81c-.298.25-.237.57.01.912.475-.007.731-.025.87-.125.126-.092.171-.293.272-.704-.58-.57-.832-.352-1.152-.082M32.355 91.217c-.26.184-.328.515-.066.8.146.16.508.29.654.216.25-.128.41-.424.636-.682-.551-.571-.907-.561-1.224-.334M29.975 92.764c-.43.072-.698.36-.514.919.388.3.712.234.963.017.122-.106.226-.437.158-.53-.14-.193-.443-.434-.607-.406M36.137 69.442c-.891-.79-1.377-.577-2.172 1.01 1.096.191 1.78-.134 2.172-1.01M7.472 85.463c-.467.014-.75.242-.585.929.423.264.74.176.965-.06.099-.107.087-.408.025-.597-.038-.118-.28-.275-.405-.272M9.77 84.537c.33.45.595.65.823.516.207-.122.15-.427-.161-.94-.371-.06-.527.01-.661.424M17.743 86.48c-.485-.008-.909.164-1.242.496-.163.162-.319.38-.418.608-.08.214-.136.468-.166.759.967.223 1.718-.428 2.35-.95.106-.087.103-.43.013-.59-.088-.156-.367-.32-.537-.322M14.626 88.871l-.036-.012c-.517-.234-.961-.314-1.211.131l-.488.812c.474.608.845.586 1.145.429.346-.18.674-.42.92-.72.014-.016.022-.034.03-.054.056-.194-.11-.482-.36-.586M35.89 76.397c.1.18.443.347.634.326.489-.056.86-.33.924-1.034-.767-.476-1.199-.497-1.501-.01-.107.172-.155.538-.056.718M38.674 75.59c.527-.313.62-.59.43-.92-.172-.301-.648-.487-.878-.34-.249.158-.387.841-.16 1.036.2.17.495.187.608.224M34.64 77.115c-1.089-.197-1.086-.2-1.17.621.805.194.807.194 1.17-.621" transform="translate(-207 -3221) translate(207 2356) translate(0 305) translate(0 560)"/>
                        <path d="M0 0H55V100H0z" transform="translate(-207 -3221) translate(207 2356) translate(0 305) translate(0 560)"/>
                    </g>
                </g>
            </g>
        </g>
    </g>
</svg>
