<svg xmlns="http://www.w3.org/2000/svg" xmlns:xlink="http://www.w3.org/1999/xlink" width="55" height="100" viewBox="0 0 55 100">
    <defs>
        <path id="14kk9k12ma" d="M0 0.609L50.599 0.609 50.599 97.02 0 97.02z"/>
    </defs>
    <g fill="none" fill-rule="evenodd">
        <g>
            <g>
                <g>
                    <g>
                        <g transform="translate(-207 -3486) translate(207 2356) translate(0 305) translate(0 825) translate(0 1.372)">
                            <mask id="8b1hvu4vzb" fill="#fff">
                                <use xlink:href="#14kk9k12ma"/>
                            </mask>
                            <path fill="#5CFFE4" d="M12.845 39.95c.204-.088.397-.224.525-.417.077-.115.089-.414.003-.58-.068-.135-.26-.296-.4-.353l1.106-3.835 1.08-3.752c.253-.1.5-.209.733-.342.92-.524 1.826-1.069 2.727-1.618l2.143-1.494 3.13-2.132 1.569-1.06 1.6-.955-.335 1.115-2.078 6.927c-.386.22-.77.443-1.153.67-.774.47-1.532.96-2.289 1.459-.745.487-1.563 1.057-2.12 1.348-1.184.675-2.237 1.584-3.547 2.057-.287.104-.531.293-.805.427-.385.182-.48.6-.492 1.302.692.414.929.099 1.275-.072l3.628-1.941c.447-.23.964-.345 1.404-.587.695-.426 1.398-1.036 2.127-1.494.415-.266.834-.526 1.256-.78l-2.062 6.871-3.326 1.743c-.319.17-.647.333-.958.52-.3.187-.607.4-.925.677-.499.456-1.036.754-1.705.891-.76.154-1.349.604-1.738 1.5 1.213.352 2.028-.004 2.72-.643.168-.156.31-.403.53-.42 1.485-.105 2.296-.96 3.366-1.467.474-.226.941-.463 1.407-.704l-.303 1.012-1.789 5.96-4.066 1.766-1.113.449c-.503.213-1.063.462-1.596.75l-.134.084c-.558.364-1.109.724-1.677 1.055-.373.217-.741.388-1.163.508-.404.114-.739.415-1.04.712-.065.065-.136.128-.201.197l4.388-15.227c.1-.043.2-.083.298-.126zm7.338-26.364l.29-1.005c.707-.337 1.414-.662 1.592-1.619.843.2 1.338.22 1.655-.053.753-.648 1.571-1.18 2.505-1.563.378-.174.525-.485.316-1.03-.5-.532-.959-.658-1.349-.34-.702.516-1.625.643-2.36 1.117-.493.314-.928.606-1.098 1.177l-.626.108c.4-1.39.801-2.779 1.2-4.169.232-.8.486-1.6.718-2.406h8.808c-.174.104-.354.195-.556.251-.134.04-.226.182-.326.287-.55.577-1.136 1.086-1.853 1.443-.307.154-.444.659-.565 1.065-.05.166.149.498.296.936.447-.224.792-.4 1.136-.572l2.332-1.256c-.267.884-.532 1.77-.798 2.655l-1.129 3.765c-.295.13-.558.29-.724.544-.449.697-1.226.726-1.74 1.18-.958.88-2.092 1.513-3.331 1.971-.42.155-.564.49-.379.96.142.36.63.66.974.45.486-.295 1.118-.308 1.578-.593 1.014-.627 1.93-1.378 2.89-2.105.005-.003.01-.006.013-.01l-1.864 6.213c-1.061.625-2.096 1.293-3.154 1.92-1.554 1.036-3.095 2.105-4.614 3.186-.434.308-.878.596-1.33.874l-.68.407-.352.202-.426.217-1.338.674 4.29-14.881zm22.044 66.36c-.855 0-2.29.734-2.29 1.74v1.411c-.7.338-1.391.663-2.05.932-.099.043-.175.133-.299.23.048.218.086.45.155.678.023.08.118.192.185.22.203.08.44.209.607.17.399-.092.78-.242 1.142-.417.088-.045.174-.095.26-.145v5.92c-.292.288-.454.76-.323 1.525.113.013.217.018.322.024v1.59h-3.639c.018-.057.035-.117.04-.18-.819-.696-.746-.8-.87-.721-.102.065-.098.192-.048.387.034.125.14.333.25.514h-.27l-.018-.038c-.113-.166-.203-.284-.275-.367-.08-.08-.105-.148-.242-.12-.223.02-.423.14-.631.242-.15.072-.27.16-.353.283h-3.05v-4.61c.526.167.899.103 1.121-.279.04-.069.07-.192.083-.306.023-.116-.04-.186-.055-.224-.156-.258-.567-.542-.703-.503-.162.051-.323.118-.446.23v-6.729c.052-.555-.222-.92-.618-1.145-.372-.25-.863-.358-1.339-.311h-7.696c.495-.319 1.008-.609 1.503-.927.44-.282.901-.542 1.286-.898.27-.25.381-.657-.193-1.292-.365.144-.8.25-1.16.473-.545.338-1.04.753-1.568 1.118-.263.184-.535.354-.826.497-.145.07-.294.136-.452.19-.132.043-.268.074-.412.096-.304.044-.548.21-.674.514-.024.07-.041.147-.054.229H4.253V70.24c0-.418.074-.912 0-1.325-.004-.017-.006-.018-.01-.028l.036-.122c.221-.773.445-1.546.666-2.318.315.094.524-.006.652-.206.07-.11-.006-.411-.105-.599-.036-.07-.148-.149-.257-.2l2.605-9.032.087-.309c.016.081.039.17.073.268.705.198 1.171-.06 1.612-.343.46-.294.923-.581 1.395-.855l.97-.549 1.122-.597.299-.127 5.13-2.046-2.594 8.646c-.775 2.585-1.561 5.166-2.327 7.753-.057-.064-.128-.12-.21-.159-.524-.274-1.117-.297-1.484.263l-.49.73c-.046.08-.096.174-.148.268.224.218.421.343.602.397.302.105.555.032.777-.094.252-.145.518-.33.742-.528-.059 1 .893 1.445 1.92 1.445h6.3c.01.142.046.278.115.388.212.339.632.425 1.06.22l.024-.014.21-.1c.04-.08.168-.26.241-.494h5.273c.855 0 2.291-.732 2.291-1.739v-1.403c.357-.206.67-.495.971-.786.067-.064.019-.376-.066-.516-.084-.139-.322-.306-.42-.286-.17.036-.33.086-.485.142V59.76c.408.1.45-.023.633-.684-.288-.07-.487-.117-.633-.134v-6.527c.606-.053 1.017-.439 1.239-1.084-.466-.415-.818-.564-1.134-.404-.035.016-.07.04-.105.065V45.02c.533-.333 1.053-.687 1.585-1.024h7.521v1.121c-.542.397-1.076.808-1.753 1.014-.7.208-1.302.619-1.924.976-.793.428-1.553.889-2.127 1.644-.248.327-.525.645-1.082.564-.386-.058-.712.228-1.064.36l.184 1.235c.723.39 1.161.299 1.522-.042.283-.265.538-.58.869-.764l2.266-1.249 1.143-.605 1.2-.514c.259-.106.512-.216.766-.328V52.72c-.482.354-.986.674-1.543.921-.438.203-.75.634-1.16.898-.476.304-.767.725-.602 1.625.803.588 1.307.242 1.76-.054.513-.333 1.037-.648 1.545-.99v5.212c-.438.282-.846.61-1.263.925-.42.318-.86.611-1.247.974-.46.459-.959.821-1.627.957-.63.116-1.13.436-1.245 1.372.838.37 1.454.207 1.972-.08.457-.255.929-.488 1.393-.73l1.349-.785c.224-.134.448-.272.668-.414v1.503c-.138.138-.178.205-.157.198.05-.067.102-.13.157-.19v-.001 4.282c-.028-.011-.059-.028-.085-.034-.912-.205-1.3.372-1.129 1.61.58.29 1.003.127 1.4-.093.334.548 1.066.747 1.77.747h4.46v9.068c-.148.102-.296.204-.446.305h-3.679zm6.416-12.567h-4.459V42.258c0-1.099-1.005-1.457-1.957-1.457H28.873c-.856 0-2.29.732-2.29 1.739V67.379h-8.53l1.443-4.809 4.775-15.914 5.788-19.296 5.004-16.677c.808-2.695 1.63-5.387 2.425-8.086l.035-.117c.39-1.302-.679-1.872-1.841-1.872H21.543c-.72 0-1.952.54-2.178 1.324-.87 3.023-1.742 6.046-2.614 9.07l-5.935 20.592-6.381 22.139c-1.333 4.626-2.668 9.253-4 13.88-.1.34-.199.681-.297 1.023-.178.63-.133 1.232-.133 1.887V81.685c0 1.099 1.005 1.457 1.957 1.457H26.583v12.422c0 1.097 1.003 1.456 1.956 1.456h13.353c.856 0 2.292-.733 2.292-1.74V83.143h4.124c.856 0 2.292-.733 2.292-1.74V68.836c0-1.097-1.005-1.456-1.957-1.456z" mask="url(#8b1hvu4vzb)"/>
                        </g>
                        <path fill="#5CFFE4" d="M15.886 75.09c-.483-.154-.906-.036-1.134.243-.032.042-.057.084-.078.129-.338.712-.967.984-1.617 1.15-.52.134-.932.392-1.13.82-.35.76-.922 1.11-1.751 1.194-.832.09-1.09.674-1.052 1.734.287.068.534.176.738.16.757-.062 1.3-.48 1.788-.925.18-.164.314-.408.538-.493 1.395-.532 2.287-1.716 3.381-2.572.148-.098.3-.19.46-.274.12-.064.223-.166.3-.285.169-.261-.082-.765-.443-.882M34.153 67.058c.122-.135.194-.475.106-.668-.085-.189-.416-.413-.614-.448-.893-.162-1.304.372-1.55 1.37.959.445 1.587.273 2.058-.254M19.695 72.426c-.322.255-.355.706-.111 1.248 1.123.371 1.138.364 1.478-.84-.538-.587-.997-.7-1.367-.408M18.451 73.63c-.46-.205-1.102.371-.986.882.042.177.276.482.418.53.266.092.528.041.76.048.13-.14.257-.217.316-.353.069-.162.17-.421.093-.555-.131-.224-.389-.458-.6-.552M32.283 88.526c-.156-.014-.233.063-.305.18-.019.04-.037.083-.05.126-.065.186.298.892.48.988.094.049.18.083.26.105.124.042.234.057.335.06.181-.015.11-.302-.022-.908-.289-.193-.54-.545-.698-.55M34.477 87.127c-.42.102-.792.73-.728 1.266.042.363.325.602.545.575.577-.065 1.154-.195 1.284-1.064-.328-.511-.634-.89-1.101-.777M37.474 86.749c-.413-.502-.876-.821-1.315-.532-.381.25-.609.661-.25 1.338 1.252.383 1.361.326 1.565-.806M11.995 48.468c.138.01.26-.019.373-.076.225-.112.412-.337.616-.586-.439-.288-.731-.4-.95-.323-.11.04-.201.126-.284.263-.1.145-.099.297-.336.614.125.033.258.047.359.062.08.025.153.04.222.046M37.367 94.836c.71.07 1.38.022 1.578-.912-.435-.519-.809-.616-1.136-.469-.3.136-.584.34-.804.597-.194.224.055.753.362.784M36.402 72.985c.194.018.376-.046.51-.065.137-.098.241-.147.318-.229.188-.201.356-.492.065-.813-.19-.21-.584-.383-.78-.328-.263.071-.468.339-.622.596-.178.294.138.806.51.84M24.752 77.485c-.233.162-.156.475.061.87.797.221.77.237.984-.548-.51-.691-.783-.504-1.045-.322M30.371 74.795c-.244.147-.309.47-.062.799.139.183.482.37.618.317.238-.09.389-.364.604-.592-.524-.658-.858-.705-1.16-.524M28.125 75.991c-.407.006-.66.257-.491.852.364.363.67.348.908.167.115-.089.216-.408.151-.513-.13-.217-.415-.507-.568-.506M33.543 72.957c-.066.08-.148.15-.202.248-.056.103-.135.224-.115.345.036.215.096.51.228.635.124.12.395.144.525.072.5-.272.367-.65-.436-1.3M40.383 77.301c.204.44.517.392.785.368.36-.034.351-.284-.042-1.207-.777.198-.946.405-.743.84M8.305 65.892c.077-.02.156-.055.236-.103.373-.23.376-.596.02-1.128-.358.04-.654.138-.877.32-.139.133-.247.298-.323.507.309.363.625.513.944.404M10.066 71.564c-.77-.108-1.382.127-1.816.583-.644.677-1.442 1.12-2.24 1.58-.377.203-.67.479-.561 1.353.244.073.405.158.52.147.412-.045.748-.128 1.126-.306.392-.188.756-.418 1.105-.67.696-.503 1.332-1.094 2.026-1.598.25-.183.321-.6-.16-1.09M33.148 60.15c.46-.017.784-.263.768-.96-.78-.534-1.193-.587-1.43-.124-.083.163-.09.525.026.712.112.187.456.378.636.372M35.07 59.129c.466-.31.525-.594.314-.942-.191-.316-.662-.516-.866-.37-.223.16-.285.863-.048 1.068.208.18.488.203.6.244M27.476 9.95c.256-.059.572-.26.598-.52.049-.486-.38-.717-.815-.899l-.622.595c.141.627.46.91.84.824M22.88 20.13c.274-.187.49-.458.804-.766-.916-.803-1.3-.89-1.6-.386-.105.18-.08.587.044.847.171.361.526.46.751.305M21.346 21.096c.142-.108.254-.407.195-.618-.06-.21-.334-.505-.536-.615-.547-.301-.75.08-.965.521.65.804.956.98 1.306.712M19.24 22.285c.256-.172.194-.465.045-.72-.269-.426-.505-.586-.763-.422-.263.17-.314.56-.122.885.184.309.577.433.84.257" transform="translate(-207 -3486) translate(207 2356) translate(0 305) translate(0 825)"/>
                        <path d="M0 0H55V100H0z" transform="translate(-207 -3486) translate(207 2356) translate(0 305) translate(0 825)"/>
                    </g>
                </g>
            </g>
        </g>
    </g>
</svg>
